<svg width="28" height="28" viewBox="0 0 28 28" fill="none" xmlns="http://www.w3.org/2000/svg">
  <path d="M5.25 11.4286L6.95 21.9251C6.99856 22.2256 7.14923 22.4985 7.37517 22.6954C7.60111 22.8922 7.88765 23.0002 8.18375 23H19.8162C20.1121 22.9999 20.3984 22.8918 20.6241 22.695C20.8497 22.4981 21.0002 22.2254 21.0487 21.9251L22.75 11.4286M5.25 11.4286H9M5.25 11.4286H4M22.75 11.4286H19M22.75 11.4286H24M9 11.4286L10.25 5M9 11.4286H19M19 11.4286L17.75 5M10.25 16.5714V17.8571M17.75 16.5714V17.8571M14 16.5714V17.8571" stroke-linecap="round" stroke-linejoin="round" />
</svg>
