<svg width="32" height="32" viewBox="0 0 32 32" fill="none" xmlns="http://www.w3.org/2000/svg">
<path fill-rule="evenodd" clip-rule="evenodd" d="M15.9997 8.83841C13.6401 4.74327 7.79262 4.26533 4.82496 8.09032L4.41248 8.62196C1.90264 11.8569 2.26504 16.47 5.24921 19.2733L14.6303 28.0859C14.6393 28.0943 14.6484 28.1029 14.6576 28.1115C14.7948 28.2406 14.96 28.3959 15.1205 28.5115C15.3153 28.6517 15.6092 28.8142 15.9996 28.8142C16.3901 28.8142 16.684 28.6517 16.8787 28.5115C17.0393 28.3959 17.2045 28.2406 17.3417 28.1115C17.3509 28.1028 17.36 28.0943 17.369 28.0859L26.7501 19.2733C29.7343 16.47 30.0967 11.8569 27.5868 8.62196L27.1743 8.09032C24.2067 4.26533 18.3593 4.74327 15.9997 8.83841Z"/>
</svg>
