<svg width="28" height="28" viewBox="0 0 28 28" fill="none" xmlns="http://www.w3.org/2000/svg">
  <path d="M22 23V21.3929C22 18.7301 19.4413 16.5714 16.2853 16.5714H11.7147C8.55867 16.5714 6 18.7301 6 21.3929V23M18 8.85714C18 9.88012 17.5786 10.8612 16.8284 11.5846C16.0783 12.3079 15.0609 12.7143 14 12.7143C12.9391 12.7143 11.9217 12.3079 11.1716 11.5846C10.4214 10.8612 10 9.88012 10 8.85714C10 7.83416 10.4214 6.85309 11.1716 6.12973C11.9217 5.40638 12.9391 5 14 5C15.0609 5 16.0783 5.40638 16.8284 6.12973C17.5786 6.85309 18 7.83416 18 8.85714Z" stroke-linecap="round" stroke-linejoin="round" />
</svg>
