<svg width="85" height="38" viewBox="0 0 85 38" fill="none" xmlns="http://www.w3.org/2000/svg">
  <path d="M49.5293 0H55.2364V21.0409C55.2364 22.3232 55.4098 23.2676 55.7607 23.8904C56.1116 24.5132 56.7771 24.8103 57.7774 24.8103C58.2903 24.8072 58.8 24.7276 59.2899 24.5742C59.825 24.4124 60.3446 24.2026 60.8427 23.9474V29.5526C60.1013 29.9187 59.3185 30.1921 58.5114 30.3667C57.7465 30.5323 56.9666 30.6169 56.1842 30.6191C54.1407 30.6191 52.5274 29.8945 51.3443 28.4454C50.1612 26.9962 49.5656 24.9134 49.5575 22.197L49.5293 0Z" fill="#FD5137" />
  <path d="M62.6937 19.0787C62.6645 17.4727 62.9681 15.8782 63.5851 14.3975C64.1479 13.0805 64.9714 11.8934 66.0051 10.909C67.0188 9.95267 68.2138 9.21327 69.5181 8.73529C70.8664 8.23555 72.2924 7.98327 73.7288 7.99038H73.9628C75.4008 7.98487 76.8277 8.24421 78.1735 8.75566C79.4836 9.25031 80.6792 10.0109 81.6865 10.9904C82.7387 12.0269 83.5632 13.2751 84.1065 14.654C84.7264 16.2647 85.0292 17.982 84.9978 19.7096C85.0251 21.3155 84.7216 22.9096 84.1065 24.3908C83.5436 25.7079 82.7202 26.895 81.6865 27.8793C80.6721 28.8348 79.4773 29.5741 78.1735 30.053C76.8205 30.5577 75.389 30.8141 73.9466 30.8102H73.7127C72.2763 30.8173 70.8503 30.565 69.5019 30.0653C68.1976 29.5873 67.0027 28.8479 65.9889 27.8915C64.9553 26.9072 64.1318 25.7201 63.569 24.403C62.9519 22.9224 62.6483 21.3279 62.6776 19.7219L62.6937 19.0787ZM73.7167 13.4776C73.0195 13.455 72.3247 13.5714 71.6721 13.82C71.0195 14.0687 70.4218 14.4448 69.9133 14.9267C68.905 15.8928 68.3995 17.2768 68.3968 19.0787V19.7056C68.3968 21.5075 68.9023 22.8915 69.9133 23.8576C70.4213 24.3403 71.0189 24.7168 71.6716 24.9655C72.3244 25.2142 73.0194 25.3302 73.7167 25.3067H73.9507C74.6479 25.3297 75.3428 25.2135 75.9955 24.9649C76.6482 24.7162 77.2458 24.3399 77.7541 23.8576C78.7624 22.8915 79.2665 21.5075 79.2665 19.7056V19.0787C79.2665 17.2741 78.7624 15.8901 77.7541 14.9267C76.7266 13.9541 75.3586 13.4329 73.9507 13.4776H73.7167Z" fill="#FD5137" />
  <path d="M6.80932 26.707L8.34601 30.7776C8.00428 31.2735 7.56148 31.6898 7.04729 31.9988C6.53415 32.2988 5.95031 32.4535 5.35733 32.4466C4.90067 32.4526 4.4468 32.374 4.01828 32.2146C3.58708 32.0413 3.16564 31.8442 2.75586 31.6243V37.6081C3.26842 37.7618 3.79571 37.86 4.32884 37.9012C4.9903 37.9663 5.59127 37.9989 6.13576 37.9989C7.18387 38.0194 8.22147 37.7849 9.16073 37.315C10.0599 36.8438 10.8631 36.2058 11.5283 35.4344C12.2543 34.5976 12.8686 33.6684 13.3554 32.6705C13.8885 31.5908 14.3545 30.4787 14.7509 29.3407L15.497 27.1792C14.4959 27.3015 13.4885 27.364 12.4801 27.3665C10.5711 27.3658 8.66846 27.1446 6.80932 26.707Z" fill="#FD5137" />
  <path d="M44.7574 14.6501C44.2141 13.2712 43.3896 12.0231 42.3374 10.9866C41.3301 10.0071 40.1345 9.2465 38.8244 8.75185C38.1466 8.49194 37.4456 8.29838 36.7311 8.17383C36.2837 10.0064 35.6315 11.7817 34.7871 13.4656C36.1355 13.4618 37.4343 13.9788 38.417 14.9107C39.4253 15.8768 39.9295 17.2608 39.9295 19.0627V19.6896C39.9295 21.4915 39.4253 22.8755 38.417 23.8416C37.9088 24.3239 37.3112 24.7002 36.6585 24.9488C36.0058 25.1975 35.3109 25.3137 34.6136 25.2907H34.3797C33.6824 25.3141 32.9873 25.1982 32.3346 24.9495C31.6819 24.7008 31.0843 24.3242 30.5763 23.8416C29.7831 23.0559 29.2794 22.0205 29.1485 20.9067C27.6589 22.257 26.0135 23.4214 24.248 24.3748C24.8109 25.6907 25.6344 26.8764 26.668 27.8593C27.6817 28.8156 28.8767 29.555 30.181 30.033C31.5274 30.5438 32.9535 30.8071 34.3918 30.8104H34.6257C36.062 30.8163 37.4878 30.5641 38.8365 30.0655C40.1403 29.5865 41.3351 28.8472 42.3495 27.8918C43.3831 26.9074 44.2066 25.7203 44.7695 24.4033C45.3846 22.922 45.6881 21.328 45.6608 19.7221C45.6904 17.9882 45.3835 16.2651 44.7574 14.6501Z" fill="#FD5137" />
  <path d="M15.9073 8.61694L11.2166 23.0757L5.97331 8.61694H0L6.8082 26.7067C8.66734 27.1443 10.57 27.3655 12.479 27.3661C13.4874 27.3637 14.4948 27.3012 15.4959 27.1789L21.8927 8.61694H15.9073Z" fill="#FD5137" />
  <path d="M29.0708 19.7052V19.0784C29.0708 17.2737 29.5763 15.8897 30.5873 14.9264C31.0958 14.4444 31.6934 14.0684 32.3461 13.8197C32.9987 13.5711 33.6935 13.4547 34.3907 13.4772H34.794C35.6384 11.7933 36.2906 10.018 36.738 8.18545C36.0389 8.06115 35.3304 7.99848 34.6206 7.99819H34.3866C32.9503 7.99109 31.5242 8.24337 30.1759 8.74312C28.8716 9.22109 27.6766 9.9605 26.6629 10.9168C25.6292 11.9012 24.8057 13.0883 24.2429 14.4053C23.6259 15.886 23.3223 17.4805 23.3515 19.0865V19.7134C23.3223 21.3194 23.6259 22.9139 24.2429 24.3946C26.0084 23.4412 27.6537 22.2768 29.1434 20.9264C29.0893 20.5217 29.065 20.1136 29.0708 19.7052Z" fill="#FD5137" />
</svg>
