<svg width="19" height="19" viewBox="0 0 19 19" fill="none" xmlns="http://www.w3.org/2000/svg">
  <path id="Vector" d="M12.79 13.79C11.48 15.06 9.78 15.8 7.96 15.91L7.96 18.54C7.96 18.79 7.75 19 7.5 19C7.24 19 7.03 18.79 7.03 18.54L7.03 15.91C5.21 15.8 3.51 15.06 2.2 13.79C0.78 12.41 0 10.59 0 8.65C0 8.41 0.2 8.2 0.46 8.2C0.72 8.2 0.93 8.4 0.93 8.65C0.93 12.16 3.87 15.02 7.5 15.02C11.12 15.02 14.06 12.16 14.06 8.65C14.06 8.41 14.27 8.2 14.53 8.2C14.79 8.2 15 8.4 15 8.65C15 10.59 14.21 12.41 12.79 13.79ZM3.18 8.66L3.18 4.18C3.18 1.87 5.12 0 7.5 0C9.87 0 11.81 1.87 11.81 4.18L11.81 8.65C11.81 10.96 9.87 12.84 7.5 12.84C5.12 12.84 3.18 10.96 3.18 8.66ZM4.11 8.66C4.11 10.46 5.63 11.93 7.5 11.93C9.36 11.93 10.88 10.46 10.88 8.66L10.88 4.18C10.88 2.37 9.36 0.9 7.5 0.9C5.63 0.9 4.11 2.37 4.11 4.18L4.11 8.66Z" fill="#202020" fill-opacity="1.000000" fill-rule="nonzero"/>
</svg>
