<svg width="19" height="19" viewBox="0 0 19 19" fill="none" xmlns="http://www.w3.org/2000/svg">
  <path d="M14.7973 13.7946C13.4882 15.0635 11.7874 15.8065 9.96674 15.9153V18.5476C9.96674 18.7974 9.75768 19 9.5 19C9.24232 19 9.03326 18.7976 9.03326 18.5476V15.9153C7.21263 15.8065 5.512 15.0635 4.20274 13.7946C2.78232 12.4178 2 10.5942 2 8.65985C2 8.41007 2.20884 8.20743 2.46674 8.20743C2.72442 8.20743 2.93347 8.40987 2.93347 8.65985C2.93347 12.1696 5.87916 15.025 9.5 15.025C13.1208 15.025 16.0665 12.1696 16.0665 8.65985C16.0665 8.41007 16.2756 8.20743 16.5333 8.20743C16.7909 8.20743 17 8.40987 17 8.65985C17 10.5942 16.2177 12.4178 14.7973 13.7946ZM5.18484 8.66005V4.18279C5.18484 1.87641 7.12063 0 9.5 0C11.8794 0 13.8152 1.87641 13.8152 4.18279V8.65985C13.8152 10.9662 11.8794 12.8426 9.5 12.8426C7.12063 12.8426 5.18484 10.9664 5.18484 8.66005ZM6.11832 8.66005C6.11832 10.4675 7.63537 11.938 9.5 11.938C11.3646 11.938 12.8817 10.4675 12.8817 8.66005V4.18279C12.8817 2.37536 11.3646 0.904636 9.5 0.904636C7.63537 0.904636 6.11832 2.37515 6.11832 4.18279V8.66005Z" fill="#202020" stroke="#202020"/>
</svg>
