<svg width="77" height="86" fill="none" xmlns="http://www.w3.org/2000/svg"><path d="M.967 28.46c.632-1.35 1.44-2.86.887-4.696-.074-.25-.054-.53-.113-.785-.103-.422-.142-.918-.392-1.236-.431-.55-.412-1.016-.118-1.59.785-1.546 2.093-2.802 2.485-4.564.054-.24.314-.432.48-.643.329-.422.652-.854.995-1.266.206-.255.402-.55.672-.716.745-.466 1.593-.795 2.279-1.33.661-.52 1.2-1.134.882-2.213-.319-1.08.804-3.008 1.897-3.41 1.215-.447 1.852-1.257 2.122-2.474.068-.314.362-.584.656-1.025.515 1.015 1.186 1.246 2.069 1.109.421-.064.877.093 1.313.093.368 0 .784.005 1.093-.162.818-.442 1.539-1.163 2.401-1.418 1.378-.408 2.833-.574 4.269-.76.97-.128 1.965-.187 2.945-.138.868.039 1.686.142 2.47-.398.167-.113.57.069.843.167.28.103.53.275.902.476a1.28 1.28 0 00-.235.442c-.073.284-.191.736-.054.863.77.717.338 1.217-.215 1.723-.74.682-.696.854.205 1.212.417.162.745.574 1.162.702 1.103.328 2.24.554 3.352.848.206.054.51.216.544.373.191 1.001.877 1.163 1.74 1.306.652.108 1.235.593 1.877.82.372.132.916.245 1.19.073.285-.182.54-.78.452-1.1-.245-.868.103-1.354.803-1.683.839-.392 1.686-.672 2.524.06.285.25.623.5.976.608a157.89 157.89 0 005.425 1.521c.265.069.627.02.868-.118.906-.515 1.685-.937 2.798-.235.559.348 1.52.059 2.264.059.951 1.383.78 2.787-.059 4.42-.553-.76-1.044-1.427-1.534-2.094-.049.02-.103.039-.152.053.143.359.255.737.432 1.075.926 1.806 2.092 3.533 2.715 5.437.304.923.706 1.492 1.294 2.17.446.514.573 1.393.632 2.129.083 1.084.304 1.948 1.28 2.645.484.343.788 1.153.876 1.796.128.873.667 1.344 1.245 1.83 1.059.893 2.171 1.732 3.186 2.674.186.172 0 .741-.015 1.124h-.299c.064.025.152.03.181.074 1.427 1.958 3.127.913 4.813.495 1.343-.328 2.735-.485 4.166-.726.088 1.237-.23 2.488-.95 3.66-1.27 2.062-2.118 4.412-4.01 6.037-1.02.878-2.2 1.575-3.19 2.473-1.324 1.202-2.671 2.424-3.76 3.832-.774 1.006-1.141 2.326-1.656 3.519-.068.157-.014.51.093.569.838.446.441 1.236.485 1.85.074.986.167 1.89 1.015 2.552.157.122.24.412.255.628.103 1.369.162 2.743.264 4.112.07.898-.994 2.488-2.156 2.817-1.926.55-2.872 2.316-4.396 3.351-.137.093-.069.56-.025.84.211 1.236.525 2.463.623 3.709.03.402-.422.922-.78 1.241-.318.28-.833.33-1.234.525-.618.3-1.044.51-.843 1.517.215 1.07.01 2.37-1.113 3.175-.274.196-.466.51-.681.78-.995 1.276-1.926 2.61-2.995 3.823-1.573 1.78-3.695 2.046-5.94 2.031-.96-.005-1.925.324-2.881.53-.314.069-.716.417-.892.319-.52-.3-1.108-.677-1.358-1.178-.26-.52-.985-1.104-.235-1.874.162-.167-.064-.795-.216-1.163a45.901 45.901 0 00-1.254-2.733c-.182-.368-.456-.692-.662-1.05-.465-.83-1.107-1.62-1.333-2.513-.372-1.492-.475-3.047-.691-4.578-.024-.167-.044-.349-.122-.496-.765-1.403-1.422-2.885-2.348-4.171-.799-1.114-.593-2.257-.51-3.396.06-.8.432-1.59.735-2.355.187-.471.422-1.001.794-1.3.887-.722.809-1.556.446-2.43-.299-.711-.75-1.27-.343-2.188.191-.432-.392-1.192-.593-1.816-.647-1.997-1.896-3.548-3.396-4.98-.623-.594-1.059-1.34-.505-2.449.495-.991.544-2.223.681-3.366.113-.943-1.083-1.948-2.034-1.816-.411.059-.833.079-1.235.162-.872.187-1.44-.01-1.735-.972-.323-1.045-1.176-1.3-2.23-1.27-1.92.048-3.548.996-5.307 1.555-.333.108-.75.182-1.069.083-1.568-.48-3.126-.431-4.572.265-1.152.555-1.995.162-2.877-.451-1.186-.83-2.391-1.639-3.548-2.508-.358-.27-.814-.711-.824-1.084-.049-1.477-1.352-1.943-2.073-2.876-.44-.569-.97-.986-1.534-1.413-.264-.201-.348-.692-.43-1.065-.153-.608-.212-1.241-.33-2.06zm73.504 30.262c1.103 1.06.853 2.62 1.265 3.995a7.123 7.123 0 01-.28.127c-.162-.122-.323-.245-.485-.363-.044.05-.118.089-.123.138-.166 1.167-.2 2.37-.51 3.493-.631 2.273-1.4 4.505-2.136 6.743-.206.623-1.69 1.472-2.318 1.379-.926-.138-1.69-1.036-1.73-2.051-.005-.172.118-.398.04-.506-.908-1.28-.256-2.292.42-3.405.29-.476.295-1.237.187-1.826-.172-.927-.564-1.82.162-2.664.25-.29.51-.658.843-.785 1.342-.51 2.705-.844 3.141-2.582.162-.618.965-1.094 1.524-1.693z" fill="#F2F2F2"/><path d="M29.473 51.207c6.251 0 11.319-5.072 11.319-11.328 0-6.256-5.068-11.327-11.319-11.327-6.251 0-11.319 5.071-11.319 11.327s5.068 11.328 11.32 11.328z" fill="#0ADBAB"/><path d="M29.397 46.803a5.14 5.14 0 01-5.131-5.138 5.142 5.142 0 015.13-5.137 5.142 5.142 0 015.132 5.137 5.14 5.14 0 01-5.131 5.138zm0-8.317a3.175 3.175 0 000 6.35 3.175 3.175 0 000-6.35zm-5.7-3.656a5.14 5.14 0 01-5.13-5.138 5.142 5.142 0 015.13-5.138 5.142 5.142 0 015.132 5.138 5.142 5.142 0 01-5.132 5.138zm0-8.318a3.175 3.175 0 000 6.35 3.175 3.175 0 000-6.35zm12.36 8.318a5.14 5.14 0 01-5.131-5.138 5.142 5.142 0 015.131-5.138 5.142 5.142 0 015.131 5.138 5.14 5.14 0 01-5.13 5.138zm0-8.318a3.175 3.175 0 000 6.35 3.175 3.175 0 003.171-3.175 3.172 3.172 0 00-3.17-3.175z" fill="#0833C5"/><path d="M37.626 59.056h-1.96v-5.77c0-3.578-2.907-6.488-6.48-6.488-3.572 0-6.479 2.91-6.479 6.487v5.766h-1.96v-5.766c0-4.656 3.784-8.45 8.44-8.45 4.655 0 8.439 3.789 8.439 8.45v5.771z" fill="#0833C5"/><path d="M23.398 62.108a2.658 2.658 0 01-2.65-2.654v-6.036h1.96v6.035a.69.69 0 101.382 0v-6.035h1.96v6.035a2.652 2.652 0 01-2.652 2.655zm11.577 0a2.658 2.658 0 01-2.652-2.654v-6.036h1.96v6.035a.69.69 0 101.383 0v-6.035h1.96v6.035a2.655 2.655 0 01-2.651 2.655z" fill="#0833C5"/><path d="M26.05 54.806h-1.961V68.89h1.96V54.806zm8.234 0h-1.96V68.89h1.96V54.806zm8.125-10.432a5.14 5.14 0 01-5.132-5.138A5.142 5.142 0 0142.41 34.1a5.142 5.142 0 015.13 5.137c0 2.832-2.303 5.138-5.13 5.138zm0-8.318a3.175 3.175 0 000 6.35 3.175 3.175 0 000-6.35z" fill="#0833C5"/><path d="M50.633 56.627h-1.96v-5.766c0-3.577-2.907-6.487-6.48-6.487v-1.963c4.651 0 8.44 3.788 8.44 8.45v5.766z" fill="#0833C5"/><path d="M47.981 59.68a2.658 2.658 0 01-2.65-2.655v-6.036h1.96v6.036c0 .372.318.691.69.691a.704.704 0 00.691-.691v-6.036h1.96v6.036a2.655 2.655 0 01-2.65 2.654z" fill="#0833C5"/><path d="M47.29 52.377h-1.96v11.537h1.96V52.377zm-30.694-8.003a5.14 5.14 0 01-5.131-5.138 5.142 5.142 0 015.131-5.137 5.142 5.142 0 015.131 5.137c0 2.832-2.303 5.138-5.13 5.138zm0-8.318a3.175 3.175 0 000 6.35 3.175 3.175 0 000-6.35z" fill="#0833C5"/><path d="M10.332 56.627h-1.96v-5.766c0-4.657 3.784-8.45 8.44-8.45v1.963c-3.573 0-6.48 2.91-6.48 6.487v5.766z" fill="#0833C5"/><path d="M11.024 59.68a2.658 2.658 0 01-2.652-2.655v-6.036h1.96v6.036c0 .372.319.691.691.691a.704.704 0 00.691-.691v-6.036h1.96v6.036a2.658 2.658 0 01-2.65 2.654z" fill="#0833C5"/><path d="M13.67 52.377h-1.96v11.537h1.96V52.377z" fill="#0833C5"/></svg>