<svg width="73" height="51" fill="none" xmlns="http://www.w3.org/2000/svg"><path d="M36.132 38.643c7.46 0 13.51-6.038 13.51-13.486 0-7.449-6.05-13.487-13.51-13.487-7.461 0-13.51 6.038-13.51 13.487 0 7.448 6.049 13.486 13.51 13.486z" fill="#0ADBAB"/><path d="M72.26 50.05H60.255v-1.956H70.3V38.066h1.96v11.985zm-60.246 0H.004V38.067h1.96v10.028h10.05v1.957zM72.26 12.247H70.3V2.22H60.255V.263H72.26v11.984zm-70.296 0H.004V.263h12.01v1.956H1.964v10.028zm34.168 31.978c-16.925 0-31.208-17.84-31.806-18.599l-.466-.587.451-.601c.569-.759 14.098-18.623 31.82-18.623 17.724 0 31.258 17.86 31.826 18.623l.451.601-.465.587c-.603.758-14.886 18.599-31.811 18.599zM6.355 25.005c2.63 3.092 15.479 17.263 29.777 17.263 14.298 0 27.146-14.171 29.782-17.263-2.523-3.111-14.818-17.234-29.782-17.234-14.984 0-27.259 14.118-29.777 17.234z" fill="#0833C5"/><path d="M35.955 44.24c-10.55 0-19.13-8.615-19.13-19.206 0-10.59 8.58-19.205 19.13-19.205 10.668 0 19.35 8.615 19.35 19.205 0 10.591-8.682 19.205-19.35 19.205zm0-36.459c-9.466 0-17.17 7.739-17.17 17.248 0 9.51 7.704 17.249 17.17 17.249 9.59 0 17.39-7.739 17.39-17.248 0-9.51-7.8-17.249-17.39-17.249z" fill="#0833C5"/><path d="M35.956 35.15c-5.601 0-10.158-4.598-10.158-10.248 0-5.65 4.557-10.248 10.158-10.248 5.718 0 10.373 4.598 10.373 10.248 0 5.65-4.65 10.248-10.373 10.248zm0-18.544c-4.523 0-8.198 3.718-8.198 8.291 0 4.574 3.68 8.292 8.198 8.292 4.64 0 8.413-3.718 8.413-8.292 0-4.573-3.773-8.291-8.413-8.291z" fill="#0833C5"/><path d="M26.822 24.174H5.198v1.956h21.624v-1.956zm40.238-.03H45.443v1.957H67.06v-1.957zM37.01 34.358h-1.96v14.675h1.96V34.358zm0-33.171h-1.96v14.328h1.96V1.187z" fill="#0833C5"/></svg>