<svg width="64" height="62" fill="none" xmlns="http://www.w3.org/2000/svg"><path d="M50.255 14.535H14.122v24.087h36.133V14.534z" fill="#E0FA00"/><path d="M32.233 39.385c-11.143 0-20.55-11.692-20.948-12.19l-.47-.593.45-.601c.373-.5 9.3-12.215 20.963-12.215 11.667 0 20.497 11.716 20.864 12.215l.446.597-.46.587c-.388.499-9.703 12.2-20.845 12.2zm-18.91-12.817c2.049 2.348 10.085 10.86 18.91 10.86 8.83 0 16.792-8.517 18.816-10.86-1.94-2.353-9.575-10.825-18.816-10.825-9.251 0-16.95 8.467-18.91 10.825z" fill="#0833C5"/><path d="M32.404 32.487a6.017 6.017 0 006.022-6.012 6.017 6.017 0 00-6.022-6.012 6.017 6.017 0 00-6.022 6.012 6.017 6.017 0 006.022 6.012z" fill="#0833C5"/><path d="M32.404 38.993c-6.855 0-12.431-5.567-12.431-12.41 0-6.844 5.576-12.41 12.431-12.41 6.855 0 12.432 5.566 12.432 12.41 0 6.843-5.577 12.41-12.432 12.41zm0-22.864c-5.777 0-10.471 4.691-10.471 10.454 0 5.762 4.7 10.454 10.471 10.454 5.772 0 10.472-4.692 10.472-10.454 0-5.762-4.695-10.454-10.472-10.454z" fill="#0833C5"/><path d="M63.77 52.406H.671V.525h63.092v51.881h.005zM2.631 50.45h59.172V2.48H2.632v47.97z" fill="#0833C5"/><path d="M49.824 61.789h-35.51l5.164-11.34h25.186l5.16 11.34zm-32.468-1.957h29.425L43.4 52.407H20.737l-3.38 7.425zm37.907-42.524h-1.96v-5.845h-5.856V9.506h7.816v7.802zm0 26.567h-7.816V41.92h5.856v-5.846h1.96v7.802zm-37.721 0H9.727v-7.802h1.96v5.846h5.855v1.956zm-5.855-26.567h-1.96V9.506h7.815v1.957h-5.855v5.845z" fill="#0833C5"/></svg>