<svg width="76" height="69" fill="none" xmlns="http://www.w3.org/2000/svg"><path d="M50.583 68.6L37.408 44.45h25.928L50.583 68.6z" fill="#0ADBAB"/><path d="M9.754 8.523a3.64 3.64 0 003.639-3.641 3.64 3.64 0 10-3.639 3.64z" fill="#fff"/><path d="M9.754 9.748a4.869 4.869 0 01-4.863-4.866A4.869 4.869 0 019.754.015a4.869 4.869 0 014.864 4.867 4.877 4.877 0 01-4.864 4.866zm0-7.281a2.419 2.419 0 00-2.413 2.415 2.419 2.419 0 002.413 2.415 2.419 2.419 0 002.414-2.415 2.419 2.419 0 00-2.414-2.415zm55.334 35.058h-2.45V27.1c0-6.767-5.5-12.27-12.263-12.27-6.762 0-12.262 5.503-12.262 12.27v10.425h-2.45V27.1c0-8.121 6.603-14.722 14.712-14.722 8.11 0 14.713 6.607 14.713 14.721v10.426z" fill="#0833C5"/><path d="M39.908 42.496a4.252 4.252 0 01-4.245-4.248v-10.91h2.45v10.91c0 .993.809 1.796 1.795 1.796.986 0 1.794-.809 1.794-1.796v-10.91h2.45v10.91a4.252 4.252 0 01-4.244 4.248zm20.929 0a4.252 4.252 0 01-4.245-4.248v-10.91h2.45v10.91c0 .993.809 1.796 1.795 1.796.986 0 1.794-.809 1.794-1.796v-10.91h2.45v10.91a4.244 4.244 0 01-4.244 4.248zm8.991 13.557h-2.45v-23.94a4.252 4.252 0 014.245-4.247 4.252 4.252 0 014.244 4.247h-2.45c0-.993-.808-1.796-1.794-1.796s-1.795.81-1.795 1.796v23.94z" fill="#0833C5"/><path d="M44.152 29.84h-2.45v26.685h2.45V29.839zm14.89 0h-2.45v26.685h2.45V29.839z" fill="#0833C5"/><path d="M50.755 16.938a7.512 7.512 0 007.51-7.515 7.512 7.512 0 00-7.51-7.514 7.512 7.512 0 00-7.51 7.514 7.512 7.512 0 007.51 7.515z" fill="#fff"/><path d="M50.755 18.17c-4.82 0-8.734-3.923-8.734-8.74 0-4.818 3.92-8.74 8.734-8.74 4.82 0 8.734 3.922 8.734 8.74 0 4.817-3.914 8.74-8.734 8.74zm0-15.035a6.291 6.291 0 00-6.284 6.288 6.291 6.291 0 006.284 6.289 6.291 6.291 0 006.284-6.289 6.291 6.291 0 00-6.284-6.288zm-20.507 34.39h-2.45V27.1c0-6.767-5.5-12.27-12.262-12.27-6.762 0-12.262 5.503-12.262 12.27v10.425H.824V27.1c0-8.121 6.603-14.722 14.712-14.722 8.11 0 14.713 6.607 14.713 14.721v10.426z" fill="#0833C5"/><path d="M5.069 42.496a4.252 4.252 0 01-4.245-4.248v-10.91h2.45v10.91c0 .993.808 1.796 1.795 1.796.986 0 1.794-.809 1.794-1.796v-10.91h2.45v10.91a4.244 4.244 0 01-4.244 4.248zm20.935 0a4.252 4.252 0 01-4.245-4.248v-10.91h2.45v10.91c0 .993.809 1.796 1.795 1.796.992 0 1.794-.809 1.794-1.796v-10.91h2.45v10.91a4.252 4.252 0 01-4.244 4.248z" fill="#0833C5"/><path d="M8.094 26.775L4.42 55.299h22.853l-4.288-28.524" fill="#fff"/><path d="M28.693 56.525H3.023l3.853-29.904 2.431.313-3.497 27.14h20.035l-4.073-27.115 2.419-.362 4.502 29.928z" fill="#0833C5"/><path d="M15.328 44.45L28.503 68.6H2.57l12.758-24.15z" fill="#0ADBAB"/><path d="M28.693 56.525H3.023l3.853-29.904 2.431.313-3.497 27.14h20.035l-4.073-27.115 2.419-.362 4.502 29.928z" fill="#0833C5"/><path d="M15.922 16.938a7.512 7.512 0 007.51-7.515 7.512 7.512 0 00-7.51-7.514 7.512 7.512 0 00-7.509 7.514 7.512 7.512 0 007.51 7.515z" fill="#fff"/><path d="M15.922 18.17c-4.82 0-8.734-3.923-8.734-8.74 0-4.818 3.92-8.74 8.734-8.74 4.82 0 8.735 3.922 8.735 8.74 0 4.817-3.92 8.74-8.735 8.74zm0-15.035a6.291 6.291 0 00-6.284 6.288 6.291 6.291 0 006.284 6.289 6.291 6.291 0 006.284-6.289 6.291 6.291 0 00-6.284-6.288z" fill="#0833C5"/><path d="M8.59 11.054c5.464.68 8.796-5.118 8.796-5.118s1.893 2.862 6.021 2.862" fill="#fff"/><path d="M9.497 12.335a7.88 7.88 0 01-1.06-.068l.3-2.433c4.582.576 7.559-4.468 7.583-4.517l2.083-.061c.061.085 1.623 2.31 4.998 2.31v2.452c-2.836 0-4.765-1.177-5.88-2.145-1.341 1.716-4.116 4.462-8.024 4.462zM51.6 37.525h-2.45v19.147h2.45V37.525zM48.538 58.56H38.07v2.452h10.468V58.56zm13.903 0H51.974v2.452h10.468V58.56zm-47.664-.613h-5.12v2.452h5.12v-2.452zm7.558 0h-5.12v2.452h5.12v-2.452z" fill="#0833C5"/></svg>