<svg width="55" height="76" fill="none" xmlns="http://www.w3.org/2000/svg"><path d="M15.698 75.221l11.356-19.496L38.728 75.22" fill="#0ADBAB"/><path d="M53.44 75.558H1.261c-.435 0-.839-.233-1.06-.607a1.222 1.222 0 01-.012-1.22l25.689-45.807-2.971-5.271 2.131-1.202 2.236 3.972 2.297-4.1 2.138 1.2-3.026 5.4L54.5 73.733c.214.38.208.846-.013 1.22-.214.38-.612.606-1.047.606zM3.35 73.107h47.99L27.285 30.424 3.35 73.107z" fill="#0833C5"/><path d="M28.573 18.019h-2.45v9.788h2.45v-9.788zm5.977 22.028H19.803v2.451H34.55v-2.451zm6.493 11.608H13.291v2.452h27.752v-2.452z" fill="#0833C5"/><path d="M45.735 27.63h-2.45c0-8.79-7.148-15.942-15.931-15.942-8.784 0-15.931 7.152-15.931 15.941h-2.45c0-10.143 8.244-18.393 18.38-18.393 10.137 0 18.382 8.25 18.382 18.393zM28.579.65h-2.45v6.27h2.45V.65zM18.147 2.1l-2.3.844 2.158 5.886 2.3-.844L18.147 2.1zm18.203-.041l-2.159 5.886 2.3.845 2.159-5.886-2.3-.845zm18.088 23.554h-6.265v2.451h6.265v-2.451zm-47.842 0H.33v2.451h6.266v-2.451zm2.25-18.231L7.114 9.116l4.426 4.429 1.732-1.734-4.426-4.429zm36.247.002l-4.426 4.43 1.732 1.733 4.427-4.43-1.733-1.733zm6.663 7.738l-5.668 2.675 1.045 2.217 5.668-2.674-1.045-2.218zm-48.828.012L1.883 17.35l5.668 2.674 1.044-2.218-5.667-2.673z" fill="#DFF900"/></svg>