<svg width="110" height="78" fill="none" xmlns="http://www.w3.org/2000/svg"><path d="M33.966 68.938l-1.954-1.477c.251-.337 6.352-8.305 19.055-15.489 11.687-6.607 31.397-13.71 58.922-10.033l-.324 2.427c-26.79-3.579-45.938 3.285-57.281 9.678-12.305 6.932-18.363 14.814-18.418 14.894z" fill="#DFF900"/><path d="M43.925 73.277L41.971 71.8c.215-.282 5.36-7.006 16.06-13.055 9.837-5.559 26.43-11.54 49.594-8.446l-.324 2.427c-22.43-2.99-38.46 2.746-47.96 8.09-10.295 5.799-15.367 12.394-15.416 12.461z" fill="#DFF900"/><path d="M54.975 77.316l-1.954-1.477c.165-.22 4.14-5.418 12.397-10.082 7.583-4.285 20.36-8.894 38.189-6.51l-.324 2.428C70.502 57.299 55.128 77.12 54.975 77.316zm1.488-26.054c-8.336-10.518-20.01-15.758-34.729-15.58-11.074.134-19.802 3.462-19.888 3.493L.958 36.89c.368-.141 9.163-3.506 20.66-3.66 15.3-.201 28.04 5.505 36.756 16.506l-1.91 1.527z" fill="#DFF900"/><path d="M48.102 55.08C32.779 36.14 3.837 46.224 3.544 46.328l-.827-2.311c.306-.11 30.864-10.781 47.291 9.518l-1.904 1.545z" fill="#DFF900"/><path d="M40.703 61.325c-12.61-15.91-34.428-7.722-34.649-7.643l-.882-2.286c.233-.092 23.71-8.936 37.455 8.403l-1.924 1.526z" fill="#DFF900"/><path d="M80.718 31.673H72.67l-5.831-13.65-17.456-9.162-17.457 9.163-5.83 13.65h-8.049l8.195-19.19L49.382.334l23.14 12.148 8.196 19.19zm-6.437-2.451H77l-6.395-14.974L49.376 3.1 28.147 14.248l-6.394 14.974h2.72l5.536-12.963L49.376 6.09 68.75 16.253l5.53 12.969z" fill="#0833C5"/><path d="M75.212 54.988H24.056v-24.54h2.45v22.088h46.256V30.447h2.45v24.541zm-15.49-28.157H39.148v2.452h20.574V26.83z" fill="#0833C5"/><path d="M58.105 29.283H41.108V18.416h16.997v10.867zM43.558 26.83h12.097v-5.963H43.558v5.963z" fill="#0833C5"/><path d="M50.663 19.642h-2.45v8.415h2.45v-8.415zm.196 35.346H36.446V37.067H50.86v17.921zm-11.962-2.452h9.512V39.518h-9.512v13.018z" fill="#0833C5"/><path d="M38.654 37.556l-1.953 1.48 11.072 14.591 1.953-1.48-11.072-14.59z" fill="#0833C5"/><path d="M48.675 37.109L36.704 53.025l1.96 1.472 11.97-15.916-1.96-1.472z" fill="#0833C5"/><path d="M62.82 54.988H48.41V37.067h14.41v17.921zm-11.96-2.452h9.512V39.518H50.86v13.018z" fill="#0833C5"/><path d="M50.617 37.554l-1.953 1.48 11.072 14.591 1.953-1.48-11.072-14.591z" fill="#0833C5"/><path d="M60.642 37.104L48.67 53.02l1.96 1.472L62.6 38.576l-1.96-1.472zm30.948 12c-5.084 0-9.065-5.749-9.065-13.085 0-7.337 3.981-13.086 9.065-13.086s9.065 5.75 9.065 13.086-3.981 13.085-9.065 13.085zm0-23.713c-3.59 0-6.615 4.866-6.615 10.634 0 5.767 3.032 10.634 6.615 10.634s6.615-4.867 6.615-10.634c0-5.768-3.026-10.634-6.615-10.634z" fill="#0833C5"/><path d="M92.815 36.019h-2.45v24.02h2.45v-24.02z" fill="#0833C5"/></svg>