<svg width="70" height="73" fill="none" xmlns="http://www.w3.org/2000/svg"><path d="M17.492 65.802c5.328 0 9.647-4.322 9.647-9.653s-4.319-9.653-9.647-9.653-9.647 4.322-9.647 9.653 4.32 9.653 9.647 9.653z" fill="#DFF900"/><path d="M39.628 17.156a7.518 7.518 0 007.515-7.52 7.518 7.518 0 00-7.515-7.52 7.518 7.518 0 00-7.516 7.52 7.518 7.518 0 007.516 7.52z" fill="#fff"/><path d="M39.628 18.376c-4.82 0-8.74-3.923-8.74-8.746 0-4.824 3.92-8.747 8.74-8.747s8.74 3.923 8.74 8.747c0 4.823-3.926 8.746-8.74 8.746zm0-15.035c-3.467 0-6.29 2.826-6.29 6.295s2.823 6.294 6.29 6.294 6.29-2.825 6.29-6.294c0-3.47-2.823-6.295-6.29-6.295zM17.455 72.814a16.59 16.59 0 01-9.971-3.328A16.644 16.644 0 01.936 58.472a16.636 16.636 0 013.148-12.418 16.615 16.615 0 0111.007-6.552l.35 2.427a14.174 14.174 0 00-9.397 5.596A14.178 14.178 0 003.356 58.13c1.133 7.796 8.385 13.22 16.182 12.092 7.79-1.134 13.211-8.397 12.084-16.193l2.426-.35c1.323 9.14-5.029 17.646-14.155 18.976-.815.098-1.63.16-2.438.16z" fill="#0833C5"/><path d="M60.882 61.745c-.068-.092-6.53-9.525-9.917-14.87-2.444-3.854-4.03-4.474-7.074-4.964-3.442-.551-8.722-1.354-8.722-1.354a1.239 1.239 0 01-.809-.49 1.198 1.198 0 01-.214-.92c.012-.08 1.341-8.096 2.18-13.637.252-1.661-.03-2.844-.85-3.518-1.134-.932-3.37-.956-5.832-.062-3.228 1.171-14.32 5.743-16.507 6.65l-7.98 13.442-2.108-1.25 8.19-13.791c.134-.227.343-.405.581-.509.546-.227 13.365-5.534 16.991-6.846 3.375-1.22 6.37-1.048 8.22.472 1.053.864 2.205 2.568 1.715 5.78-.65 4.26-1.58 9.972-1.985 12.448 1.77.27 5.096.784 7.516 1.17 3.779.607 5.941 1.625 8.752 6.068 3.363 5.314 9.8 14.704 9.868 14.796l-2.015 1.385z" fill="#0833C5"/><path d="M53.47 67.383L42.41 52.416c-2.138-.52-11.644-2.856-17.438-4.59-2.756-.828-4.539-2.133-5.445-3.996-1.685-3.463.073-7.968 2.113-13.19l.294-.754 2.284.889-.294.76c-1.825 4.682-3.405 8.728-2.192 11.222.588 1.214 1.88 2.102 3.95 2.721 6.462 1.937 17.634 4.634 17.744 4.658.282.068.527.233.699.466L55.45 65.931l-1.979 1.453zm15.012-8.073l-13.99 10.084 1.432 1.99 13.99-10.085-1.432-1.99z" fill="#0833C5"/></svg>