<svg width="85" height="38" fill="none" xmlns="http://www.w3.org/2000/svg"><path d="M49.53 0h5.706v21.04c0 1.283.174 2.228.525 2.85.35.623 1.016.92 2.016.92a5.166 5.166 0 001.513-.236 9.323 9.323 0 001.553-.627v5.606a10.07 10.07 0 01-2.332.814c-.765.165-1.544.25-2.327.252-2.043 0-3.657-.724-4.84-2.174-1.183-1.449-1.778-3.532-1.787-6.248L49.53 0zm13.164 19.079c-.03-1.606.274-3.2.891-4.681a10.53 10.53 0 012.42-3.489 10.27 10.27 0 013.513-2.174c1.348-.5 2.774-.752 4.21-.745h.235a11.725 11.725 0 014.21.766 10.216 10.216 0 013.513 2.234 10.592 10.592 0 012.42 3.664 13.4 13.4 0 01.892 5.056 11.69 11.69 0 01-.892 4.68 10.53 10.53 0 01-2.42 3.49 10.307 10.307 0 01-3.513 2.173 12 12 0 01-4.226.757h-.234a11.946 11.946 0 01-4.211-.745 10.27 10.27 0 01-3.513-2.174 10.53 10.53 0 01-2.42-3.488 11.619 11.619 0 01-.891-4.681l.016-.643zm11.023-5.601a5.264 5.264 0 00-3.804 1.449c-1.008.966-1.513 2.35-1.516 4.152v.627c0 1.802.505 3.186 1.516 4.152a5.282 5.282 0 001.759 1.107 5.247 5.247 0 002.045.342h.234a5.257 5.257 0 003.803-1.45c1.008-.965 1.512-2.35 1.512-4.151v-.627c0-1.805-.504-3.189-1.512-4.152a5.288 5.288 0 00-3.803-1.45h-.234zM6.81 26.707l1.536 4.07A4.213 4.213 0 017.047 32a3.28 3.28 0 01-1.69.448 3.7 3.7 0 01-1.339-.232c-.43-.174-.852-.37-1.262-.59v5.983c.512.154 1.04.252 1.573.293.661.065 1.262.098 1.807.098a6.477 6.477 0 003.025-.684 8.078 8.078 0 002.367-1.88 12.743 12.743 0 001.827-2.765c.534-1.08 1-2.191 1.396-3.33l.746-2.16a25.398 25.398 0 01-3.017.186c-1.909 0-3.812-.221-5.67-.659zM44.757 14.65a10.592 10.592 0 00-2.42-3.663 10.216 10.216 0 00-3.513-2.235 11.235 11.235 0 00-2.093-.578 25.07 25.07 0 01-1.944 5.292 5.253 5.253 0 013.63 1.445c1.008.966 1.512 2.35 1.512 4.152v.627c0 1.801-.504 3.185-1.512 4.152a5.29 5.29 0 01-1.759 1.107 5.256 5.256 0 01-2.044.342h-.234a5.249 5.249 0 01-3.804-1.45 4.943 4.943 0 01-1.428-2.934 24.946 24.946 0 01-4.9 3.468 10.514 10.514 0 002.42 3.484 10.27 10.27 0 003.513 2.174c1.346.51 2.772.774 4.21.777h.235a12 12 0 004.21-.744 10.31 10.31 0 003.514-2.174 10.534 10.534 0 002.42-3.489 11.69 11.69 0 00.89-4.68 13.401 13.401 0 00-.903-5.073z" fill="#FD5137"/><path d="M15.907 8.617l-4.69 14.459-5.244-14.46H0l6.808 18.09c1.86.438 3.762.66 5.671.66a25.377 25.377 0 003.017-.187l6.397-18.562h-5.986zM29.07 19.705v-.627c0-1.804.506-3.188 1.517-4.152a5.266 5.266 0 013.803-1.45h.404a25.07 25.07 0 001.944-5.29 12.04 12.04 0 00-2.117-.188h-.234a11.944 11.944 0 00-4.211.745 10.27 10.27 0 00-3.513 2.174 10.53 10.53 0 00-2.42 3.488 11.623 11.623 0 00-.891 4.682v.626c-.03 1.606.274 3.2.89 4.682a24.946 24.946 0 004.901-3.469 8.324 8.324 0 01-.072-1.22z" fill="#FD5137"/></svg>