<svg width="19" height="19" fill="none" xmlns="http://www.w3.org/2000/svg"><path d="M12.79 13.79a7.557 7.557 0 01-4.83 2.12v2.63a.465.465 0 01-.93 0v-2.63a7.557 7.557 0 01-4.83-2.12C.78 12.41 0 10.59 0 8.65c0-.24.2-.45.46-.45s.47.2.47.45c0 3.51 2.94 6.37 6.57 6.37 3.62 0 6.56-2.86 6.56-6.37 0-.24.21-.45.47-.45s.47.2.47.45c0 1.94-.79 3.76-2.21 5.14zM3.18 8.66V4.18C3.18 1.87 5.12 0 7.5 0c2.37 0 4.31 1.87 4.31 4.18v4.47c0 2.31-1.94 4.19-4.31 4.19-2.38 0-4.32-1.88-4.32-4.18zm.93 0c0 1.8 1.52 3.27 3.39 3.27 1.86 0 3.38-1.47 3.38-3.27V4.18C10.88 2.37 9.36.9 7.5.9 5.63.9 4.11 2.37 4.11 4.18v4.48z" fill="#202020"/></svg>