<svg width="68" height="50" fill="none" xmlns="http://www.w3.org/2000/svg"><path d="M36.489 49.713l-17.85-17.872L49.683.76l17.85 17.871L36.49 49.713zM21.414 31.841l15.075 15.095 28.273-28.31L49.687 3.533l-28.273 28.31z" fill="#0833C5"/><path d="M43.086 34.413c5.064 0 9.17-4.11 9.17-9.181 0-5.071-4.106-9.182-9.17-9.182-5.065 0-9.17 4.11-9.17 9.181 0 5.071 4.105 9.182 9.17 9.182z" fill="#0ADBAB"/><path d="M42.502 31.12l-.303-1.771c1.25-.138 2.249-.481 2.999-1.04l-2.235-2.238c-1.083.638-1.995.966-2.74 1-.745.03-1.435-.274-2.073-.907-.612-.614-.887-1.34-.833-2.189.054-.849.417-1.663 1.083-2.443l-.656-.658.926-.927.681.682a6.32 6.32 0 013.063-1.306l.426 1.718c-.867.127-1.627.402-2.269.83l2.162 2.163c1.088-.652 2.019-.991 2.779-1.006.76-.02 1.455.28 2.073.903.617.618.896 1.354.838 2.203-.06.85-.422 1.679-1.093 2.488l1.132 1.134-.926.927-1.147-1.148a7.433 7.433 0 01-3.887 1.585zm-3.058-6.374c.25.25.53.378.848.383.314.004.745-.143 1.289-.432l-2.005-2.007c-.328.377-.495.75-.51 1.113-.014.359.113.678.378.943zm6.705 2.704c.328-.383.504-.761.529-1.13.02-.372-.113-.7-.397-.985-.265-.265-.559-.398-.882-.398-.324 0-.765.147-1.314.447l2.064 2.066zm14.291-3.107a8.042 8.042 0 01-2.368-5.716 8.02 8.02 0 012.367-5.717l1.387 1.389a6.08 6.08 0 00-1.788 4.328 6.1 6.1 0 001.788 4.328l-1.387 1.388zM49.687 10.226a8.047 8.047 0 01-5.71-2.366l1.388-1.388a6.118 6.118 0 008.645 0l1.387 1.388a8.064 8.064 0 01-5.71 2.366zm-24.01 27.391l-1.387-1.389a6.136 6.136 0 000-8.656l1.387-1.389c3.146 3.15 3.146 8.279 0 11.434zm15.076 6.438a6.117 6.117 0 00-8.645 0l-1.387-1.389c3.146-3.15 8.268-3.15 11.419 0l-1.387 1.39z" fill="#0833C5"/><path d="M26.962 49.016L9.809 31.841l30.35-30.39 1.388 1.384-28.964 29.006 15.766 15.786-1.387 1.39z" fill="#0833C5"/><path d="M17.816 49.016L.663 31.841l30.351-30.39 1.383 1.384L3.432 31.841l15.771 15.786-1.387 1.39z" fill="#0833C5"/></svg>