<svg width="66" height="72" fill="none" xmlns="http://www.w3.org/2000/svg"><path d="M24.247 34.544l-.068.067-.067-.067a4.21 4.21 0 00-2.983-1.232c-1.078 0-2.162.41-2.983 1.232a4.234 4.234 0 000 5.97l.067.067 5.966 5.97 5.966-5.97.067-.067a4.205 4.205 0 001.232-2.985 4.19 4.19 0 00-1.232-2.985c-1.641-1.643-4.33-1.643-5.965 0z" fill="#0ADBAB"/><path d="M23.67 24.027c-1.984-1.588-4.973-5.854-2.125-10.647C24.425 8.538 30.157.411 36.186.411c6.02 0 12.243 11.302 12.243 14.33 0 2.562 0 5.216-3.975 8.642l-1.599-1.857c3.124-2.697 3.124-4.413 3.124-6.791 0-2.053-5.519-11.878-9.794-11.878-3.466 0-8.152 4.4-12.531 11.774-2.463 4.143 1.384 7.349 1.55 7.483l-1.532 1.913z" fill="#0833C5"/><path d="M27.156 17.542l-1.525-1.925 8.716-6.931 8.66 6.03-1.402 2.01-7.16-4.988-7.289 5.804zM23.23 56.596c-2.499 0-4.428-.944-7.852-3.518-5.415-4.063-2.756-16.867-1.176-24.522l.098-.472c1.58-7.655 6.878-9.898 7.105-9.99l.925 2.267-.466-1.134.472 1.134c-.178.074-4.33 1.9-5.635 8.22l-.098.471c-1.372 6.62-3.92 18.933.245 22.059 4.606 3.457 5.543 3.512 10.75 2.353 5.303-1.183 13.125-4.884 13.205-4.927l1.053 2.212c-.33.16-8.146 3.861-13.726 5.106-2.021.465-3.546.741-4.9.741zm33.155-5.038c-.025-.227-2.45-22.604-3.167-27.053-.509-3.145-4.833-5.43-6.456-6.05l.87-2.292c.294.11 7.166 2.776 8 7.95.728 4.51 3.086 26.256 3.184 27.182l-2.431.263z" fill="#0833C5"/><path d="M39.37 47.084c-5.385-5.265-11.412-19.987-11.663-20.612l2.273-.925c.06.147 6.082 14.875 11.104 19.778l-1.715 1.759z" fill="#0833C5"/><path d="M41.776 48.12l-.747-.27c-6.707-2.44-18.222-7.882-18.712-8.115l1.048-2.218c.116.055 11.061 5.228 17.762 7.753 3.534-3.58 6.095-5.467 6.205-5.547l1.451 1.974c-.024.018-2.786 2.065-6.455 5.853l-.552.57zm-4.348-18.988l-1.274-2.096a298.175 298.175 0 004.514-2.795l1.31 2.072c-.012.012-1.757 1.115-4.55 2.819zm-3.081-5.688c-5.102 0-6.633-5.736-6.731-8.77l2.45-.08-1.225.037 1.225-.043c0 .061.275 6.405 4.281 6.405 4.06 0 4.649-6.748 4.655-6.816l2.444.19c-.03.368-.772 9.077-7.099 9.077zM21.43 68.113c-.074-.013-7.192-.981-13.261-2.323-3.528-.779-5.997-2.397-7.13-4.664-1.053-2.109-.925-4.726.368-7.576 2.786-6.129 12.654-5.075 13.07-5.026l-.275 2.434c-.086-.013-8.52-.908-10.566 3.603-.992 2.182-1.127 4.021-.404 5.461.79 1.588 2.683 2.752 5.463 3.365 5.966 1.318 12.985 2.274 13.059 2.286l-.325 2.44z" fill="#0833C5"/><path d="M12.384 55.35l-.866 2.294 5.506 2.082.866-2.294-5.506-2.081zM50.29 66.053l-.3-2.433c8.508-1.054 11.57-3.169 12.642-4.75.9-1.33.704-2.703.398-3.867-.153-.576-.502-1.005-1.096-1.343-4.263-2.414-17.046 1.33-22.503 2.93-.968.282-1.764.515-2.322.662l-.625-2.372c.545-.14 1.317-.368 2.26-.643 9.99-2.924 19.858-5.278 24.403-2.71 1.176.669 1.935 1.625 2.26 2.85.386 1.478.729 3.69-.741 5.866-2.01 2.96-6.707 4.86-14.376 5.81z" fill="#0833C5"/><path d="M58.76 53.861l-7.65 1.999.618 2.373 7.652-1.998-.619-2.373zM44.529 30.059l-2.283.891 2.448 6.275 2.282-.892-2.447-6.274zM35.45 66.256c-1.281 0-12.502-.117-12.502-4.168s11.221-4.168 12.501-4.168c1.28 0 12.501.117 12.501 4.168s-11.22 4.168-12.5 4.168zm-9.917-4.168c.882.693 4.483 1.716 9.922 1.716 5.44 0 9.04-1.023 9.923-1.716-.882-.693-4.484-1.716-9.923-1.716s-9.046 1.023-9.922 1.716z" fill="#0833C5"/><path d="M35.45 71.76c-6.892 0-12.502-4.089-12.502-9.108h2.45c0 3.671 4.508 6.656 10.051 6.656S45.5 66.323 45.5 62.652h2.45c0 5.02-5.61 9.108-12.5 9.108z" fill="#0833C5"/></svg>