<svg width="72" height="69" fill="none" xmlns="http://www.w3.org/2000/svg"><path d="M49.636 43.603c6.473-6.462 16.841-6.585 16.841-6.585s-.123 10.351-6.595 16.813c-6.473 6.462-16.842 6.585-16.842 6.585s.123-10.351 6.596-16.813zm-6.9-9.5C46.431 37.79 46.5 43.7 46.5 43.7s-5.92-.068-9.614-3.756c-3.695-3.689-3.763-9.598-3.763-9.598s5.919.069 9.613 3.757z" fill="#0ADBAB"/><path d="M71.014 64.143H30.663v-1.957h38.391v-35.04c0-6.373-5.194-11.563-11.583-11.563H40.786c-6.385 0-11.583 5.185-11.583 11.564v11.74h-1.96v-11.74c0-7.455 6.076-13.521 13.543-13.521h16.685c7.467 0 13.543 6.066 13.543 13.52v36.997z" fill="#0833C5"/><path d="M60.16 15.583H38.504V8.43H60.16v7.152zm-19.697-1.957H58.2v-3.238H40.463v3.238z" fill="#0833C5"/><path d="M63.777 10.393H34.882V.785h28.895v9.608zM36.842 8.436h24.975V2.742H36.842v5.694zM64.781 26.07H28.227v1.957h36.554v-1.956zm5.253 26.284H39.483v1.957h30.551v-1.957zM18.957 36.783l-1.005-.01c-.19 0-4.758-.087-7.707-3.032-2.95-2.945-3.038-7.504-3.038-7.695l-.01-1.003 1.004.01c.191 0 4.758.088 7.708 3.033s3.038 7.504 3.038 7.695l.01 1.002zm-7.326-4.431c1.607 1.604 3.906 2.162 5.248 2.358-.196-1.346-.76-3.645-2.362-5.245-1.597-1.594-3.9-2.157-5.248-2.352.201 1.345.765 3.644 2.362 5.239zM24.47 68.399c-2.47 0-3.592-1.008-4.416-1.742-.558-.499-.828-.719-1.318-.719-.49 0-.76.22-1.318.72-.823.733-1.945 1.74-4.415 1.74-7.38 0-12.377-14.718-12.377-19.61 0-5.293 3.21-10.635 10.378-10.635 4.39 0 6.644 1.473 7.732 2.622 1.088-1.15 3.337-2.622 7.732-2.622 7.17 0 10.379 5.342 10.379 10.635-.005 4.892-5.003 19.61-12.378 19.61zm-5.734-4.417c1.26 0 1.985.645 2.627 1.218.715.64 1.386 1.242 3.106 1.242 5.464 0 10.418-12.709 10.418-17.654 0-4.002-2.205-8.678-8.419-8.678-5.61 0-6.776 2.607-6.82 2.72a1.001 1.001 0 01-.927.606.98.98 0 01-.901-.621c-.04-.093-1.206-2.7-6.816-2.7-6.213 0-8.418 4.671-8.418 8.678 0 4.945 4.954 17.654 10.417 17.654 1.72 0 2.391-.602 3.107-1.243.642-.572 1.362-1.222 2.626-1.222z" fill="#0833C5"/><path d="M43.138 1.764h-1.96v7.323h1.96V1.764zm7.174 0h-1.96v7.323h1.96V1.764zm6.738 0h-1.96v7.323h1.96V1.764z" fill="#0833C5"/></svg>