<svg width="65" height="44" fill="none" xmlns="http://www.w3.org/2000/svg"><path d="M32.18 16.44l16.955 26.953H15.227L32.18 16.44z" fill="#E0FA00"/><path d="M32.117 38.98c-10.49 0-19.026-8.57-19.026-19.106C13.09 9.337 21.625.767 32.117.767c10.614 0 19.247 8.57 19.247 19.107 0 10.537-8.633 19.107-19.247 19.107zm0-36.257c-9.413 0-17.066 7.695-17.066 17.15 0 9.456 7.658 17.151 17.066 17.151 9.53 0 17.287-7.695 17.287-17.15 0-9.456-7.756-17.15-17.287-17.15z" fill="#0833C5"/><path d="M32.225 38.981c-16.837 0-31.042-17.742-31.635-18.5l-.465-.587.45-.602C1.14 18.534 14.6.772 32.23.772c17.63 0 31.09 17.767 31.654 18.52l.45.602-.465.587c-.603.753-14.808 18.5-31.644 18.5zM2.619 19.86c2.622 3.082 15.396 17.165 29.606 17.165 14.225 0 26.99-14.079 29.61-17.165-2.518-3.102-14.734-17.136-29.61-17.136-14.877 0-27.092 14.034-29.606 17.136z" fill="#0833C5"/><path d="M33.205 16.269h-1.96v7.45h1.96v-7.45z" fill="#0833C5"/><path d="M35.959 19.018h-7.463v1.956h7.463v-1.956z" fill="#0833C5"/><path d="M31.838 11.67c7.159 0 8.972 5.088 7.815 8.805-1.259 4.05-7.644 13.56-7.644 13.56s-5.933-9.636-7.212-13.628c-1.024-3.204.171-8.737 7.04-8.737zm0-1.956c-4.302 0-6.571 1.868-7.718 3.434-1.568 2.142-2.033 5.224-1.19 7.856 1.332 4.168 7.159 13.653 7.409 14.054l1.597 2.597 1.7-2.534c.265-.396 6.556-9.793 7.884-14.068.833-2.676.392-5.548-1.186-7.68-1.225-1.668-3.699-3.66-8.496-3.66z" fill="#0833C5"/></svg>