<?xml version="1.0" encoding="utf-8"?><svg xmlns="http://www.w3.org/2000/svg" xmlns:xlink="http://www.w3.org/1999/xlink"><symbol fill="none" viewBox="0 0 28 28" id="cart" xmlns="http://www.w3.org/2000/svg"><path d="M5.25 11.429l1.7 10.496c.049.3.2.573.425.77.226.197.513.305.809.305h11.632c.296 0 .582-.108.808-.305.226-.197.376-.47.425-.77L22.75 11.43m-17.5 0H9m-3.75 0H4m18.75 0H19m3.75 0H24m-15 0L10.25 5M9 11.429h10m0 0L17.75 5m-7.5 11.571v1.286m7.5-1.286v1.286M14 16.571v1.286"/></symbol><symbol fill="none" viewBox="0 0 28 28" id="favorites" xmlns="http://www.w3.org/2000/svg"><path d="M14 8.925c-1.987-2.092-5.63-2.732-7.619-.64-1.986 2.092-1.691 4.909 0 7.36C8.074 18.097 10.731 20.3 14 23c3.27-2.7 5.926-4.903 7.619-7.355 1.691-2.451 1.986-5.268 0-7.36-1.989-2.092-5.632-1.452-7.619.64z"/></symbol><symbol fill="none" viewBox="0 0 28 28" id="pc" xmlns="http://www.w3.org/2000/svg"><path d="M22 23v-1.607c0-2.663-2.559-4.822-5.715-4.822h-4.57C8.559 16.571 6 18.731 6 21.393V23M18 8.857a3.789 3.789 0 01-1.172 2.728A4.076 4.076 0 0114 12.715a4.076 4.076 0 01-2.828-1.13A3.789 3.789 0 0110 8.857c0-1.023.421-2.004 1.172-2.727A4.076 4.076 0 0114 5c1.06 0 2.078.406 2.828 1.13A3.788 3.788 0 0118 8.857z"/></symbol><symbol fill="none" viewBox="0 0 18 17" id="star" xmlns="http://www.w3.org/2000/svg"><path d="M8.049.927c.3-.921 1.603-.921 1.902 0l1.294 3.983a1 1 0 00.951.69h4.188c.969 0 1.371 1.24.588 1.81L13.584 9.87a1 1 0 00-.364 1.118l1.295 3.983c.299.921-.756 1.688-1.54 1.118L9.589 13.63a1 1 0 00-1.176 0L5.024 16.09c-.783.57-1.838-.197-1.539-1.118L4.78 10.99a1 1 0 00-.363-1.118L1.028 7.41c-.783-.57-.38-1.81.588-1.81h4.188a1 1 0 00.95-.69L8.05.927z" fill="#FEDD61"/></symbol></svg>