<svg width="65" height="70" fill="none" xmlns="http://www.w3.org/2000/svg"><path d="M19.24 24.639a12.22 12.22 0 01-8.666-3.586 12.183 12.183 0 01-3.59-8.673 12.19 12.19 0 013.59-8.672c4.777-4.78 12.55-4.78 17.327 0 4.778 4.78 4.778 12.558 0 17.339a12.187 12.187 0 01-8.66 3.591zm0-22.059a9.772 9.772 0 00-6.933 2.868 9.753 9.753 0 00-2.873 6.938 9.774 9.774 0 002.873 6.939c3.822 3.824 10.039 3.824 13.86 0 3.823-3.825 3.823-10.046 0-13.87A9.728 9.728 0 0019.24 2.58z" fill="#DFF900"/><path d="M10.579 19.331l-9.62 9.616 1.733 1.732 9.62-9.615-1.733-1.733z" fill="#DFF900"/><path d="M3.072 21.328L1.34 23.06l7.254 7.25 1.734-1.732-7.255-7.25z" fill="#DFF900"/><path d="M35.888 69.503c-13.144 0-23.005-3.175-23.667-3.395l.766-2.33c.257.086 25.425 8.17 48.773-1.66-.447-2.936-3.546-3.678-8.367-4.585-5.059-.95-11.362-2.133-11.362-8.96h2.45c0 4.467 3.54 5.454 9.366 6.551 4.881.92 10.418 1.962 10.418 7.772v.803l-.735.319c-9.524 4.192-19.25 5.485-27.642 5.485z" fill="#0833C5"/><path d="M13.115 58.808c-.459 0-.906-.006-1.341-.019l-.582-2.286c3.853-2.23 3.853-7.287 3.853-10.008V21.703c0-12.62 9.365-19.221 18.614-19.221 4.103 0 9.665 1.771 12.311 6.711 2.438.104 4.545 1.011 6.272 2.697 4.643 4.523 5.004 13.153 5.004 15.697v22.567h-2.45V27.586c0-4.731-1.12-10.872-4.263-13.937-1.445-1.41-3.179-2.072-5.298-2.01l-1.151-.723c-1.997-4.413-6.867-5.982-10.431-5.982-8.037 0-16.164 5.76-16.164 16.769v24.792c0 2.335 0 6.643-2.438 9.818 5.304-.233 9.285-1.434 11.374-3.475 1.14-1.115 1.697-2.445 1.697-4.076h2.45c0 2.293-.821 4.254-2.438 5.829-3.485 3.42-9.85 4.217-15.019 4.217z" fill="#0833C5"/><path d="M20.355 33.115l-.93-2.268c13.823-5.681 19.722-14.575 19.777-14.667l2.058 1.33c-.251.393-6.327 9.61-20.905 15.605z" fill="#0833C5"/><path d="M36.905 52.501c-6.689 0-14.663-3.855-14.663-22.212h2.45c0 13.11 4.11 19.76 12.213 19.76 7.828 0 10.462-13.57 10.462-19.76h2.45c0 5.762-2.37 22.212-12.912 22.212zM48.99 23.265c-.319-.067-7.89-1.79-12.159-7.575l1.973-1.459c3.711 5.026 10.645 6.62 10.712 6.638l-.526 2.396z" fill="#0833C5"/><path d="M37.714 43.982c-.209 0-.41-.025-.607-.074-1.329-.337-1.947-1.698-1.972-1.753l1.12-.496c.007.006.411.882 1.158 1.066.497.123 1.079-.073 1.734-.582l.747.968c-.753.577-1.482.87-2.18.87zm6.241-8.992c.775 0 1.403-.924 1.403-2.065 0-1.14-.628-2.065-1.403-2.065s-1.403.924-1.403 2.065c0 1.14.628 2.066 1.403 2.066z" fill="#0833C5"/><path d="M45.517 32.042c-.202-.19-2.022-1.79-3.896 0l-.845-.888c2.205-2.103 4.618-.92 5.58 0l-.84.888zM32.979 34.99c.775 0 1.403-.924 1.403-2.065 0-1.14-.628-2.065-1.403-2.065s-1.403.924-1.403 2.065c0 1.14.628 2.066 1.403 2.066z" fill="#0833C5"/><path d="M34.54 32.042c-.201-.19-2.014-1.79-3.895 0l-.845-.888c2.205-2.103 4.618-.92 5.58 0l-.84.888zm-5.359-2.525l-.894-.84c2.162-2.304 5.12-1.857 6.382-1.293l-.496 1.122.251-.558-.245.564c-.122-.061-2.897-1.238-4.998 1.005zm16.893.073c-.074-.091-1.868-2.31-4.55-1.213l-.46-1.134c2.842-1.158 5.15.54 5.978 1.594l-.968.754zM38.73 40.01v-1.226c.423 0 .87-.128.962-.233-.006-.006-.006-.03-.025-.08-.434-1.164-.729-2.518-.74-2.573l1.2-.258c0 .012.288 1.324.692 2.409.16.435.122.864-.11 1.201-.509.723-1.734.76-1.979.76zm1.5 21.33c-9.101 0-14.4-5.91-14.62-6.16l1.838-1.619-.919.81.919-.81c.049.056 4.82 5.333 12.783 5.333 4.57 0 5.084-3.806 5.108-3.972l2.432.294c-.258 2.115-2.169 6.123-7.54 6.123z" fill="#0833C5"/></svg>