<?xml version="1.0" encoding="utf-8"?><!-- Uploaded to: SVG Repo, www.svgrepo.com, Generator: SVG Repo Mixer Tools -->
<svg width="22" height="30" viewBox="0 0 22 30" fill="none" xmlns="http://www.w3.org/2000/svg">
    <path d="M6.80932 18.707L8.34601 22.7776C8.00428 23.2735 7.56148 23.6898 7.04729 23.9988C6.53415 24.2988 5.95031 24.4535 5.35733 24.4466C4.90067 24.4526 4.4468 24.374 4.01828 24.2146C3.58708 24.0413 3.16564 23.8442 2.75586 23.6243V29.6081C3.26842 29.7618 3.79571 29.86 4.32884 29.9012C4.9903 29.9663 5.59127 29.9989 6.13576 29.9989C7.18387 30.0194 8.22147 29.7849 9.16073 29.315C10.0599 28.8438 10.8631 28.2058 11.5283 27.4344C12.2543 26.5976 12.8686 25.6684 13.3554 24.6705C13.8885 23.5908 14.3545 22.4787 14.7509 21.3407L15.497 19.1792C14.4959 19.3015 13.4885 19.364 12.4801 19.3665C10.5711 19.3658 8.66846 19.1446 6.80932 18.707Z" fill="#FD5137"/>
    <path d="M15.9073 0.616943L11.2166 15.0757L5.97331 0.616943H0L6.8082 18.7067C8.66734 19.1443 10.57 19.3655 12.479 19.3661C13.4874 19.3637 14.4948 19.3012 15.4959 19.1789L21.8927 0.616943H15.9073Z" fill="#FD5137"/>
</svg>
